<svg width="278" height="286" viewBox="0 0 278 286" fill="none" xmlns="http://www.w3.org/2000/svg">
<g clip-path="url(#clip0)">
<path d="M46.0319 240.93L43.7716 231.026C39.7639 229.138 35.6636 227.504 31.4903 226.13L31.205 230.733L30.0479 225.662C24.8722 224.018 21.3511 223.295 21.3511 223.295C21.3511 223.295 26.1061 243.389 36.0826 258.751L47.7062 261.019L38.6762 262.466C39.9311 264.144 41.2798 265.732 42.7141 267.222C57.2255 282.187 73.3887 289.053 78.8153 282.558C84.2418 276.062 76.8771 258.665 62.3657 243.701C57.8671 239.061 52.2159 235.338 46.5588 232.408L46.0319 240.93Z" fill="black"/>
<path d="M67.528 230.172L70.2011 220.395C67.6485 216.478 64.8991 212.724 61.966 209.151L59.5802 212.928L60.9488 207.922C57.2823 203.544 54.6047 200.903 54.6047 200.903C54.6047 200.903 49.3277 220.835 50.7197 239.715L59.6147 248.333L51.21 244.385C51.5041 246.542 51.92 248.677 52.4553 250.776C57.9153 271.921 68.5572 287.081 76.2244 284.637C83.8917 282.193 85.6814 263.071 80.2214 241.926C78.5289 235.371 75.423 228.938 71.9439 223.181L67.528 230.172Z" fill="black"/>
<path d="M200.439 67.7536H199.029V24.8389C199.029 21.577 198.451 18.347 197.328 15.3334C196.204 12.3198 194.557 9.58163 192.481 7.27513C190.405 4.96863 187.941 3.13901 185.228 1.89074C182.516 0.642474 179.609 0 176.673 0H94.8363C88.907 0 83.2205 2.61694 79.0279 7.27513C74.8352 11.9333 72.4798 18.2512 72.4798 24.8389V260.276C72.4798 263.538 73.0581 266.768 74.1816 269.782C75.3051 272.795 76.9519 275.534 79.0279 277.84C81.1039 280.147 83.5684 281.976 86.2808 283.225C88.9932 284.473 91.9004 285.115 94.8363 285.115H176.673C182.602 285.115 188.289 282.498 192.481 277.84C196.674 273.182 199.029 266.864 199.029 260.276V98.3011H200.439L200.439 67.7536Z" fill="#E6E6E6"/>
<path d="M177.575 6.45978H166.893C167.385 7.79798 167.572 9.24988 167.439 10.6876C167.307 12.1253 166.858 13.5046 166.132 14.7041C165.406 15.9035 164.426 16.8863 163.278 17.5659C162.13 18.2454 160.85 18.6008 159.549 18.6007H112.665C111.365 18.6006 110.084 18.2452 108.936 17.5656C107.788 16.886 106.808 15.9032 106.083 14.7038C105.357 13.5043 104.908 12.125 104.775 10.6874C104.643 9.24975 104.83 7.79792 105.321 6.45978H95.3441C90.9162 6.45978 86.6696 8.41409 83.5386 11.8928C80.4075 15.3715 78.6485 20.0896 78.6485 25.0092V260.105C78.6485 265.025 80.4075 269.743 83.5386 273.221C86.6696 276.7 90.9162 278.654 95.3441 278.654H177.575C182.003 278.654 186.25 276.7 189.381 273.221C192.512 269.743 194.271 265.025 194.271 260.105V25.0088C194.27 20.0893 192.511 15.3712 189.38 11.8926C186.249 8.41403 182.003 6.45978 177.575 6.45978Z" fill="white"/>
<path d="M125.981 100.11C125.981 98.4667 126.37 96.8523 127.11 95.4293C127.85 94.0063 128.914 92.8249 130.195 92.004C128.915 91.1822 127.462 90.7495 125.983 90.7493C124.504 90.7491 123.051 91.1815 121.77 92.003C120.489 92.8245 119.426 94.0061 118.686 95.4291C117.947 96.8521 117.557 98.4663 117.557 100.109C117.557 101.753 117.947 103.367 118.686 104.79C119.426 106.213 120.489 107.394 121.77 108.216C123.051 109.037 124.504 109.47 125.983 109.469C127.462 109.469 128.915 109.037 130.195 108.215C128.914 107.394 127.85 106.213 127.11 104.79C126.37 103.367 125.981 101.753 125.981 100.11Z" fill="#CCCCCC"/>
<path d="M136.572 100.11C136.572 98.4667 136.961 96.8523 137.701 95.4293C138.441 94.0063 139.505 92.8249 140.786 92.004C139.505 91.1822 138.053 90.7495 136.574 90.7493C135.095 90.7491 133.642 91.1815 132.361 92.003C131.08 92.8245 130.016 94.0061 129.277 95.4291C128.537 96.8521 128.148 98.4663 128.148 100.109C128.148 101.753 128.537 103.367 129.277 104.79C130.016 106.213 131.08 107.394 132.361 108.216C133.642 109.037 135.095 109.47 136.574 109.469C138.053 109.469 139.505 109.037 140.786 108.215C139.505 107.394 138.441 106.213 137.701 104.79C136.961 103.367 136.572 101.753 136.572 100.11Z" fill="#CCCCCC"/>
<path d="M146.922 109.47C151.575 109.47 155.347 105.279 155.347 100.11C155.347 94.9402 151.575 90.7495 146.922 90.7495C142.27 90.7495 138.498 94.9402 138.498 100.11C138.498 105.279 142.27 109.47 146.922 109.47Z" fill="black"/>
<path d="M161.002 129.345H111.902C111.434 129.344 110.986 129.138 110.656 128.77C110.325 128.403 110.139 127.905 110.138 127.386V72.8333C110.139 72.314 110.325 71.8161 110.656 71.4488C110.986 71.0816 111.434 70.875 111.902 70.8744H161.002C161.47 70.875 161.918 71.0816 162.248 71.4488C162.579 71.8161 162.765 72.314 162.765 72.8333V127.386C162.765 127.905 162.579 128.403 162.248 128.77C161.918 129.138 161.47 129.344 161.002 129.345ZM111.902 71.6584C111.621 71.6587 111.352 71.7826 111.154 72.003C110.956 72.2233 110.844 72.5221 110.844 72.8337V127.386C110.844 127.698 110.956 127.997 111.154 128.217C111.352 128.437 111.621 128.561 111.902 128.562H161.002C161.283 128.561 161.552 128.437 161.75 128.217C161.948 127.997 162.06 127.698 162.06 127.386V72.8337C162.06 72.5221 161.948 72.2233 161.75 72.003C161.552 71.7826 161.283 71.6587 161.002 71.6584H111.902Z" fill="#CCCCCC"/>
<path d="M171.965 171.162H96.66V171.946H171.965V171.162Z" fill="#CCCCCC"/>
<path d="M99.0382 166.269C100.352 166.269 101.416 165.086 101.416 163.627C101.416 162.168 100.352 160.985 99.0382 160.985C97.7247 160.985 96.66 162.168 96.66 163.627C96.66 165.086 97.7247 166.269 99.0382 166.269Z" fill="black"/>
<path d="M171.965 197.583H96.66V198.367H171.965V197.583Z" fill="#CCCCCC"/>
<path d="M99.0382 192.691C100.352 192.691 101.416 191.508 101.416 190.049C101.416 188.589 100.352 187.406 99.0382 187.406C97.7247 187.406 96.66 188.589 96.66 190.049C96.66 191.508 97.7247 192.691 99.0382 192.691Z" fill="black"/>
<path d="M170.587 227.67H146.789C146.378 227.67 145.984 227.488 145.693 227.165C145.402 226.842 145.239 226.404 145.238 225.947V216.68C145.239 216.223 145.402 215.785 145.693 215.462C145.984 215.139 146.378 214.958 146.789 214.957H170.587C170.998 214.958 171.393 215.139 171.683 215.462C171.974 215.785 172.137 216.223 172.138 216.68V225.947C172.137 226.404 171.974 226.842 171.683 227.165C171.393 227.488 170.998 227.67 170.587 227.67Z" fill="black"/>
<path d="M106.796 166.269C108.109 166.269 109.174 165.086 109.174 163.627C109.174 162.168 108.109 160.985 106.796 160.985C105.482 160.985 104.418 162.168 104.418 163.627C104.418 165.086 105.482 166.269 106.796 166.269Z" fill="black"/>
<path d="M114.553 166.269C115.867 166.269 116.932 165.086 116.932 163.627C116.932 162.168 115.867 160.985 114.553 160.985C113.24 160.985 112.175 162.168 112.175 163.627C112.175 165.086 113.24 166.269 114.553 166.269Z" fill="black"/>
<path d="M106.796 192.691C108.109 192.691 109.174 191.508 109.174 190.049C109.174 188.589 108.109 187.406 106.796 187.406C105.482 187.406 104.418 188.589 104.418 190.049C104.418 191.508 105.482 192.691 106.796 192.691Z" fill="black"/>
<path d="M114.553 192.691C115.867 192.691 116.932 191.508 116.932 190.049C116.932 188.589 115.867 187.406 114.553 187.406C113.24 187.406 112.175 188.589 112.175 190.049C112.175 191.508 113.24 192.691 114.553 192.691Z" fill="black"/>
<path d="M277.041 286H29.6482C29.1186 286 28.6896 285.791 28.6896 285.534C28.6896 285.276 29.1186 285.067 29.6482 285.067H277.041C277.571 285.067 278 285.276 278 285.534C278 285.791 277.571 286 277.041 286Z" fill="#3F3D56"/>
<path d="M215.919 187.378C216.088 187.464 216.251 187.565 216.405 187.68L231.86 180.351L232.411 175.828L238.586 175.786L238.222 186.16L217.823 192.153C217.781 192.311 217.729 192.465 217.669 192.616C217.374 193.315 216.9 193.902 216.306 194.303C215.712 194.703 215.025 194.9 214.33 194.868C213.636 194.836 212.965 194.577 212.403 194.123C211.841 193.669 211.412 193.041 211.17 192.317C210.928 191.593 210.884 190.806 211.044 190.054C211.203 189.303 211.559 188.62 212.066 188.093C212.574 187.565 213.21 187.216 213.895 187.089C214.581 186.962 215.285 187.062 215.919 187.378Z" fill="#FFB8B8"/>
<path d="M240.832 281.385H236.608L234.599 263.282L240.833 263.282L240.832 281.385Z" fill="#FFB8B8"/>
<path d="M233.591 280.043H241.738V285.743H228.461C228.461 284.231 229.002 282.781 229.964 281.713C230.926 280.644 232.23 280.043 233.591 280.043Z" fill="#2F2E41"/>
<path d="M257.261 280.059L253.057 280.519L249.46 262.722L255.664 262.043L257.261 280.059Z" fill="#FFB8B8"/>
<path d="M249.936 279.513L258.044 278.626L258.547 284.297L245.334 285.743C245.268 284.998 245.335 284.246 245.53 283.53C245.726 282.814 246.047 282.148 246.474 281.569C246.901 280.99 247.427 280.511 248.021 280.158C248.615 279.805 249.266 279.586 249.936 279.513Z" fill="#2F2E41"/>
<path d="M242.008 156.627C246.682 156.627 250.471 152.418 250.471 147.225C250.471 142.032 246.682 137.822 242.008 137.822C237.334 137.822 233.545 142.032 233.545 147.225C233.545 152.418 237.334 156.627 242.008 156.627Z" fill="#FFB8B8"/>
<path d="M235.664 277.724C235.301 277.725 234.949 277.583 234.671 277.324C234.393 277.065 234.206 276.706 234.143 276.308C231.956 262.823 224.809 218.729 224.638 217.508C224.635 217.48 224.633 217.452 224.633 217.423V214.135C224.633 214.016 224.666 213.899 224.729 213.802L225.673 212.332C225.718 212.262 225.777 212.203 225.845 212.162C225.914 212.12 225.99 212.097 226.067 212.093C231.45 211.813 249.079 210.991 249.931 212.173C250.786 213.361 250.484 216.961 250.414 217.671L250.418 217.745L258.338 274.018C258.4 274.467 258.3 274.925 258.061 275.293C257.821 275.661 257.461 275.909 257.058 275.984L252.111 276.889C251.743 276.955 251.365 276.872 251.047 276.654C250.73 276.437 250.493 276.1 250.379 275.705C248.849 270.274 243.719 252.002 241.941 244.931C241.93 244.886 241.905 244.848 241.87 244.822C241.835 244.797 241.793 244.786 241.751 244.793C241.71 244.799 241.672 244.822 241.645 244.858C241.618 244.893 241.603 244.938 241.603 244.984C241.692 251.724 241.907 268.92 241.981 274.859L241.989 275.499C241.992 275.932 241.849 276.35 241.588 276.672C241.327 276.993 240.967 277.194 240.579 277.235L235.809 277.717C235.76 277.721 235.712 277.724 235.664 277.724Z" fill="#2F2E41"/>
<path d="M236.637 160.324C235.16 161.3 234.277 163.092 233.77 164.916C232.831 168.293 232.265 171.785 232.087 175.314L231.551 185.88L224.916 213.891C230.666 219.297 233.983 218.068 241.724 213.646C249.465 209.225 250.349 215.121 250.349 215.121L251.897 191.287L254.109 165.242C253.612 164.578 253.05 163.978 252.434 163.453C250.389 161.687 248.011 160.459 245.478 159.863C242.945 159.266 240.323 159.316 237.809 160.009L236.637 160.324Z" fill="black"/>
<path d="M234.482 193.036C234.661 193.11 234.834 193.2 234.999 193.305L250.28 184.807L250.534 180.204L256.837 179.721L257.175 190.215L236.754 197.718C236.587 198.513 236.207 199.232 235.663 199.781C235.119 200.329 234.438 200.681 233.71 200.789C232.982 200.896 232.242 200.756 231.588 200.385C230.934 200.014 230.397 199.431 230.049 198.712C229.7 197.994 229.557 197.175 229.637 196.364C229.718 195.553 230.019 194.789 230.501 194.172C230.982 193.556 231.621 193.117 232.332 192.914C233.043 192.711 233.793 192.753 234.482 193.036Z" fill="#FFB8B8"/>
<path d="M253.998 165.361C257.758 166.836 258.42 182.808 258.42 182.808C253.997 180.105 248.689 184.528 248.689 184.528C248.689 184.528 247.583 180.351 246.256 174.945C245.856 173.425 245.808 171.816 246.117 170.27C246.426 168.723 247.083 167.289 248.025 166.1C248.025 166.1 250.238 163.886 253.998 165.361Z" fill="black"/>
<path d="M249.596 149.711C248.542 148.774 247.103 150.477 247.103 150.477L246.26 142.042C246.26 142.042 240.988 142.744 237.613 141.808C234.239 140.872 233.712 145.206 233.712 145.206C233.538 143.455 233.503 141.691 233.607 139.934C233.817 137.825 236.559 135.717 241.409 134.311C246.26 132.905 248.79 138.997 248.79 138.997C252.165 140.871 250.651 150.648 249.596 149.711Z" fill="#2F2E41"/>
</g>
<g opacity="0.5">
<path opacity="0.1" d="M3.74365 212.165C8.09469 233.428 17.2781 251.806 31.8051 260.715C61.9904 279.226 130.084 269.679 180.901 258.719C207.182 253.05 230.288 237.414 247.073 215.383L3.74365 212.165Z" fill="black"/>
<path opacity="0.1" d="M271.209 111.574H243.17C242.848 111.605 242.525 111.558 242.219 111.437C241.914 111.316 241.633 111.123 241.396 110.869C241.158 110.616 240.968 110.308 240.839 109.965C240.709 109.623 240.642 109.252 240.642 108.878C240.642 108.504 240.709 108.134 240.839 107.791C240.968 107.448 241.158 107.14 241.396 106.887C241.633 106.634 241.914 106.44 242.219 106.319C242.525 106.198 242.848 106.151 243.17 106.183H248.019C247.7 106.208 247.38 106.157 247.079 106.033C246.778 105.909 246.502 105.715 246.269 105.462C246.035 105.209 245.849 104.904 245.722 104.564C245.595 104.224 245.529 103.858 245.529 103.487C245.529 103.117 245.595 102.751 245.722 102.411C245.849 102.071 246.035 101.765 246.269 101.513C246.502 101.26 246.778 101.065 247.079 100.941C247.38 100.818 247.7 100.767 248.019 100.792H244.556C244.235 100.823 243.911 100.777 243.606 100.656C243.3 100.535 243.02 100.341 242.782 100.088C242.545 99.8344 242.355 99.5266 242.225 99.1839C242.095 98.8412 242.028 98.4709 242.028 98.0966C242.028 97.7223 242.095 97.352 242.225 97.0093C242.355 96.6666 242.545 96.3588 242.782 96.1054C243.02 95.8521 243.3 95.6587 243.606 95.5375C243.911 95.4163 244.235 95.3699 244.556 95.4012H259.19C255.941 93.7174 252.159 92.5219 247.775 91.8941C207.871 86.1862 193.628 89.9597 188.596 93.8474C182.394 98.642 175.47 102.168 168.086 103.868C143.474 109.528 97.4219 116.34 55.6905 101.689C34.9479 94.396 19.5325 106.712 10.2947 127.28H276.085C275.737 121.302 274.698 115.781 272.803 110.952C272.35 111.368 271.786 111.588 271.209 111.574Z" fill="black"/>
<path opacity="0.1" d="M171.197 179.297L171.562 179.32L265.79 185.738C261.252 196.835 255.48 207.12 248.636 216.306L192.121 213.892L184.626 213.559L182.566 213.472L181.288 213.418L173.332 213.085L166.937 212.812L155.925 212.342H155.664L153.39 212.248L145.13 211.895L142.274 211.772H142.197L140.115 211.685L138.493 211.615L134.178 211.428L132.765 211.368H132.644H132.345L130.738 211.298H130.598L127.259 211.155L115.339 210.648H115.185L114.478 210.615L113.811 210.588H113.655L106.173 210.255L102.247 210.088L97.773 209.898L96.4589 209.841H96.2915L87.3617 209.458L84.7994 209.348L66.1003 208.548L63.9632 208.458L62.9619 208.418L44.4302 207.634L43.8815 207.611L40.7842 207.478L1.70165 205.811C-0.10663 193.213 -0.4759 180.372 0.604287 167.652L47.0501 170.819L49.3381 170.959L51.9307 171.132L68.3005 172.253L126.713 176.253L130.675 176.526L167.357 179.034L171.197 179.297Z" fill="black"/>
<path opacity="0.1" d="M275.96 127.28L82.6888 132.816L61.445 133.426L7.36671 134.976C4.08708 144.87 1.93347 156.057 0.935913 167.652H271.267C273.029 160.851 274.334 153.885 275.167 146.823C275.96 140.01 276.285 133.419 275.96 127.28ZM55.4597 152.496H50.6168C51.2465 152.483 51.855 152.775 52.3093 153.31C52.7636 153.845 53.0266 154.578 53.0409 155.35C53.0409 155.41 53.0409 155.467 53.0409 155.524C53.0147 155.969 52.9036 156.399 52.7166 156.782C52.5295 157.164 52.2718 157.487 51.9641 157.725C51.5639 158.04 51.098 158.207 50.6222 158.207H22.5951C22.2824 158.22 21.9708 158.156 21.6788 158.018C21.3867 157.881 21.1203 157.672 20.8953 157.406C20.6703 157.14 20.4914 156.82 20.3692 156.467C20.247 156.114 20.184 155.735 20.184 155.352C20.184 154.968 20.247 154.589 20.3692 154.236C20.4914 153.883 20.6703 153.564 20.8953 153.297C21.1203 153.031 21.3867 152.823 21.6788 152.685C21.9708 152.547 22.2824 152.483 22.5951 152.496H27.438C27.1195 152.523 26.8 152.469 26.4992 152.338C26.1984 152.207 25.9227 152.002 25.6894 151.735C25.4561 151.468 25.2701 151.145 25.1429 150.786C25.0157 150.428 24.95 150.041 24.95 149.649C24.95 149.258 25.0157 148.871 25.1429 148.512C25.2701 148.154 25.4561 147.831 25.6894 147.564C25.9227 147.297 26.1984 147.091 26.4992 146.96C26.8 146.83 27.1195 146.776 27.438 146.803H23.9807C23.6593 146.836 23.3357 146.787 23.0304 146.659C22.7252 146.531 22.445 146.326 22.2075 146.059C21.97 145.791 21.7805 145.466 21.6508 145.104C21.5211 144.742 21.4541 144.351 21.4541 143.956C21.4541 143.56 21.5211 143.169 21.6508 142.807C21.7805 142.445 21.97 142.12 22.2075 141.853C22.445 141.585 22.7252 141.381 23.0304 141.253C23.3357 141.125 23.6593 141.076 23.9807 141.109H51.9997C52.3211 141.076 52.6447 141.125 52.95 141.253C53.2552 141.381 53.5354 141.585 53.7729 141.853C54.0104 142.12 54.2 142.445 54.3296 142.807C54.4593 143.169 54.5263 143.56 54.5263 143.956C54.5263 144.351 54.4593 144.742 54.3296 145.104C54.2 145.466 54.0104 145.791 53.7729 146.059C53.5354 146.326 53.2552 146.531 52.95 146.659C52.6447 146.787 52.3211 146.836 51.9997 146.803H55.4597C55.8596 146.799 56.2544 146.914 56.6103 147.137C56.989 147.372 57.3078 147.73 57.5319 148.172C57.756 148.614 57.8768 149.123 57.8811 149.643C57.8675 150.414 57.605 151.147 57.1512 151.682C56.6974 152.217 56.0892 152.51 55.4597 152.496Z" fill="black"/>
</g>
<defs>
<clipPath id="clip0">
<rect width="256.649" height="286" fill="white" transform="translate(21.3511)"/>
</clipPath>
</defs>
</svg>
